<svg width="236" height="32" viewBox="0 0 236 32" fill="none" xmlns="http://www.w3.org/2000/svg">
<path d="M11.932 17.316L10.312 12.528C10.192 12.224 10.064 11.868 9.928 11.46C9.792 11.044 9.656 10.596 9.52 10.116C9.4 10.604 9.272 11.056 9.136 11.472C9 11.888 8.872 12.248 8.752 12.552L7.144 17.316H11.932ZM18.376 24H15.232C14.88 24 14.596 23.92 14.38 23.76C14.164 23.592 14 23.38 13.888 23.124L12.856 20.076H6.208L5.176 23.124C5.088 23.348 4.928 23.552 4.696 23.736C4.472 23.912 4.192 24 3.856 24H0.688L7.456 6.516H11.608L18.376 24ZM39.9854 6.516L32.9774 24H29.3054L22.2974 6.516H25.5614C25.9134 6.516 26.1974 6.6 26.4134 6.768C26.6294 6.928 26.7934 7.136 26.9054 7.392L30.2894 16.752C30.4494 17.16 30.6054 17.608 30.7574 18.096C30.9094 18.576 31.0534 19.08 31.1894 19.608C31.3014 19.08 31.4254 18.576 31.5614 18.096C31.7054 17.608 31.8574 17.16 32.0174 16.752L35.3774 7.392C35.4654 7.168 35.6214 6.968 35.8454 6.792C36.0774 6.608 36.3614 6.516 36.6974 6.516H39.9854Z" fill="black"/>
<path d="M60.4968 19.476C60.5928 19.476 60.6888 19.496 60.7848 19.536C60.8808 19.568 60.9728 19.628 61.0608 19.716L62.6688 21.408C61.9648 22.328 61.0808 23.024 60.0168 23.496C58.9608 23.96 57.7088 24.192 56.2608 24.192C54.9328 24.192 53.7408 23.968 52.6848 23.52C51.6368 23.064 50.7448 22.44 50.0088 21.648C49.2808 20.848 48.7208 19.904 48.3288 18.816C47.9368 17.72 47.7408 16.532 47.7408 15.252C47.7408 13.948 47.9528 12.752 48.3768 11.664C48.8008 10.568 49.3968 9.624 50.1648 8.832C50.9328 8.04 51.8528 7.424 52.9248 6.984C53.9968 6.544 55.1768 6.324 56.4648 6.324C57.1208 6.324 57.7368 6.384 58.3128 6.504C58.8968 6.616 59.4408 6.776 59.9448 6.984C60.4488 7.184 60.9128 7.428 61.3368 7.716C61.7608 8.004 62.1368 8.316 62.4648 8.652L61.0968 10.488C61.0088 10.6 60.9048 10.704 60.7848 10.8C60.6648 10.888 60.4968 10.932 60.2808 10.932C60.1368 10.932 60.0008 10.9 59.8728 10.836C59.7448 10.772 59.6088 10.696 59.4648 10.608C59.3208 10.512 59.1608 10.412 58.9848 10.308C58.8168 10.196 58.6128 10.096 58.3728 10.008C58.1408 9.912 57.8648 9.832 57.5448 9.768C57.2328 9.704 56.8648 9.672 56.4408 9.672C55.7688 9.672 55.1528 9.796 54.5928 10.044C54.0408 10.292 53.5608 10.656 53.1528 11.136C52.7528 11.608 52.4408 12.192 52.2168 12.888C52.0008 13.576 51.8928 14.364 51.8928 15.252C51.8928 16.148 52.0128 16.944 52.2528 17.64C52.5008 18.336 52.8328 18.924 53.2488 19.404C53.6728 19.876 54.1648 20.236 54.7248 20.484C55.2848 20.732 55.8848 20.856 56.5248 20.856C56.8928 20.856 57.2288 20.84 57.5328 20.808C57.8368 20.768 58.1208 20.708 58.3848 20.628C58.6488 20.54 58.8968 20.428 59.1288 20.292C59.3608 20.148 59.5968 19.968 59.8368 19.752C59.9328 19.672 60.0368 19.608 60.1488 19.56C60.2608 19.504 60.3768 19.476 60.4968 19.476ZM87.201 15.252C87.201 16.516 86.981 17.692 86.541 18.78C86.109 19.868 85.497 20.816 84.705 21.624C83.913 22.424 82.957 23.052 81.837 23.508C80.725 23.964 79.489 24.192 78.129 24.192C76.769 24.192 75.529 23.964 74.409 23.508C73.289 23.052 72.329 22.424 71.529 21.624C70.737 20.816 70.121 19.868 69.681 18.78C69.249 17.692 69.033 16.516 69.033 15.252C69.033 13.988 69.249 12.812 69.681 11.724C70.121 10.636 70.737 9.692 71.529 8.892C72.329 8.092 73.289 7.464 74.409 7.008C75.529 6.552 76.769 6.324 78.129 6.324C79.489 6.324 80.725 6.556 81.837 7.02C82.957 7.476 83.913 8.104 84.705 8.904C85.497 9.704 86.109 10.648 86.541 11.736C86.981 12.824 87.201 13.996 87.201 15.252ZM83.049 15.252C83.049 14.388 82.937 13.612 82.713 12.924C82.489 12.228 82.165 11.64 81.741 11.16C81.325 10.68 80.813 10.312 80.205 10.056C79.597 9.8 78.905 9.672 78.129 9.672C77.345 9.672 76.645 9.8 76.029 10.056C75.421 10.312 74.905 10.68 74.481 11.16C74.065 11.64 73.745 12.228 73.521 12.924C73.297 13.612 73.185 14.388 73.185 15.252C73.185 16.124 73.297 16.908 73.521 17.604C73.745 18.292 74.065 18.876 74.481 19.356C74.905 19.836 75.421 20.204 76.029 20.46C76.645 20.708 77.345 20.832 78.129 20.832C78.905 20.832 79.597 20.708 80.205 20.46C80.813 20.204 81.325 19.836 81.741 19.356C82.165 18.876 82.489 18.292 82.713 17.604C82.937 16.908 83.049 16.124 83.049 15.252ZM106.124 20.76V24H95.5878V6.516H99.6438V20.76H106.124ZM130.935 15.252C130.935 16.516 130.715 17.692 130.275 18.78C129.843 19.868 129.231 20.816 128.439 21.624C127.647 22.424 126.691 23.052 125.571 23.508C124.459 23.964 123.223 24.192 121.863 24.192C120.503 24.192 119.263 23.964 118.143 23.508C117.023 23.052 116.063 22.424 115.263 21.624C114.471 20.816 113.855 19.868 113.415 18.78C112.983 17.692 112.767 16.516 112.767 15.252C112.767 13.988 112.983 12.812 113.415 11.724C113.855 10.636 114.471 9.692 115.263 8.892C116.063 8.092 117.023 7.464 118.143 7.008C119.263 6.552 120.503 6.324 121.863 6.324C123.223 6.324 124.459 6.556 125.571 7.02C126.691 7.476 127.647 8.104 128.439 8.904C129.231 9.704 129.843 10.648 130.275 11.736C130.715 12.824 130.935 13.996 130.935 15.252ZM126.783 15.252C126.783 14.388 126.671 13.612 126.447 12.924C126.223 12.228 125.899 11.64 125.475 11.16C125.059 10.68 124.547 10.312 123.939 10.056C123.331 9.8 122.639 9.672 121.863 9.672C121.079 9.672 120.379 9.8 119.763 10.056C119.155 10.312 118.639 10.68 118.215 11.16C117.799 11.64 117.479 12.228 117.255 12.924C117.031 13.612 116.919 14.388 116.919 15.252C116.919 16.124 117.031 16.908 117.255 17.604C117.479 18.292 117.799 18.876 118.215 19.356C118.639 19.836 119.155 20.204 119.763 20.46C120.379 20.708 121.079 20.832 121.863 20.832C122.639 20.832 123.331 20.708 123.939 20.46C124.547 20.204 125.059 19.836 125.475 19.356C125.899 18.876 126.223 18.292 126.447 17.604C126.671 16.908 126.783 16.124 126.783 15.252ZM145.01 14.736C145.562 14.736 146.03 14.668 146.414 14.532C146.806 14.388 147.126 14.192 147.374 13.944C147.622 13.696 147.802 13.408 147.914 13.08C148.026 12.744 148.082 12.384 148.082 12C148.082 11.232 147.83 10.632 147.326 10.2C146.83 9.768 146.058 9.552 145.01 9.552H143.378V14.736H145.01ZM153.626 24H149.954C149.274 24 148.786 23.744 148.49 23.232L145.586 18.156C145.45 17.94 145.298 17.784 145.13 17.688C144.962 17.584 144.722 17.532 144.41 17.532H143.378V24H139.322V6.516H145.01C146.274 6.516 147.35 6.648 148.238 6.912C149.134 7.168 149.862 7.528 150.422 7.992C150.99 8.456 151.402 9.004 151.658 9.636C151.914 10.268 152.042 10.956 152.042 11.7C152.042 12.268 151.966 12.804 151.814 13.308C151.662 13.812 151.438 14.28 151.142 14.712C150.846 15.136 150.478 15.516 150.038 15.852C149.606 16.188 149.106 16.464 148.538 16.68C148.802 16.816 149.05 16.988 149.282 17.196C149.514 17.396 149.722 17.636 149.906 17.916L153.626 24ZM170.336 17.316L168.716 12.528C168.596 12.224 168.468 11.868 168.332 11.46C168.196 11.044 168.06 10.596 167.924 10.116C167.804 10.604 167.676 11.056 167.54 11.472C167.404 11.888 167.276 12.248 167.156 12.552L165.548 17.316H170.336ZM176.78 24H173.636C173.284 24 173 23.92 172.784 23.76C172.568 23.592 172.404 23.38 172.292 23.124L171.26 20.076H164.612L163.58 23.124C163.492 23.348 163.332 23.552 163.1 23.736C162.876 23.912 162.596 24 162.26 24H159.092L165.86 6.516H170.012L176.78 24ZM200.022 15.252C200.022 16.516 199.802 17.684 199.362 18.756C198.93 19.82 198.318 20.744 197.526 21.528C196.734 22.304 195.778 22.912 194.658 23.352C193.546 23.784 192.31 24 190.95 24H184.158V6.516H190.95C192.31 6.516 193.546 6.736 194.658 7.176C195.778 7.616 196.734 8.224 197.526 9C198.318 9.776 198.93 10.7 199.362 11.772C199.802 12.836 200.022 13.996 200.022 15.252ZM195.87 15.252C195.87 14.388 195.758 13.608 195.534 12.912C195.31 12.216 194.986 11.628 194.562 11.148C194.146 10.66 193.634 10.288 193.026 10.032C192.418 9.768 191.726 9.636 190.95 9.636H188.238V20.88H190.95C191.726 20.88 192.418 20.752 193.026 20.496C193.634 20.232 194.146 19.86 194.562 19.38C194.986 18.892 195.31 18.3 195.534 17.604C195.758 16.908 195.87 16.124 195.87 15.252ZM225.576 15.252C225.576 16.516 225.356 17.692 224.916 18.78C224.484 19.868 223.872 20.816 223.08 21.624C222.288 22.424 221.332 23.052 220.212 23.508C219.1 23.964 217.864 24.192 216.504 24.192C215.144 24.192 213.904 23.964 212.784 23.508C211.664 23.052 210.704 22.424 209.904 21.624C209.112 20.816 208.496 19.868 208.056 18.78C207.624 17.692 207.408 16.516 207.408 15.252C207.408 13.988 207.624 12.812 208.056 11.724C208.496 10.636 209.112 9.692 209.904 8.892C210.704 8.092 211.664 7.464 212.784 7.008C213.904 6.552 215.144 6.324 216.504 6.324C217.864 6.324 219.1 6.556 220.212 7.02C221.332 7.476 222.288 8.104 223.08 8.904C223.872 9.704 224.484 10.648 224.916 11.736C225.356 12.824 225.576 13.996 225.576 15.252ZM221.424 15.252C221.424 14.388 221.312 13.612 221.088 12.924C220.864 12.228 220.54 11.64 220.116 11.16C219.7 10.68 219.188 10.312 218.58 10.056C217.972 9.8 217.28 9.672 216.504 9.672C215.72 9.672 215.02 9.8 214.404 10.056C213.796 10.312 213.28 10.68 212.856 11.16C212.44 11.64 212.12 12.228 211.896 12.924C211.672 13.612 211.56 14.388 211.56 15.252C211.56 16.124 211.672 16.908 211.896 17.604C212.12 18.292 212.44 18.876 212.856 19.356C213.28 19.836 213.796 20.204 214.404 20.46C215.02 20.708 215.72 20.832 216.504 20.832C217.28 20.832 217.972 20.708 218.58 20.46C219.188 20.204 219.7 19.836 220.116 19.356C220.54 18.876 220.864 18.292 221.088 17.604C221.312 16.908 221.424 16.124 221.424 15.252Z" fill="#3FD0D4"/>
</svg>
